<svg width="371" height="73" viewBox="0 0 371 73" fill="none" xmlns="http://www.w3.org/2000/svg">
<mask id="path-1-inside-1_1_150" fill="white">
<path d="M4 8H0.727273C0.420336 8 0.266867 8 0.160289 7.92022C0.129752 7.89736 0.102643 7.87025 0.0797835 7.83971C0 7.73313 0 7.57966 0 7.27273C0 4.20336 0 2.66867 0.797835 1.60289C1.02643 1.29752 1.29752 1.02643 1.60289 0.797835C2.66867 0 4.20336 0 7.27273 0H28.7273C31.7966 0 33.3313 0 34.3971 0.797835C34.7025 1.02643 34.9736 1.29752 35.2022 1.60289C36 2.66867 36 4.20336 36 7.27273C36 7.57966 36 7.73313 35.9202 7.83971C35.8974 7.87025 35.8702 7.89736 35.8397 7.92022C35.7331 8 35.5797 8 35.2727 8H32V24C32 27.7712 32 29.6569 30.8284 30.8284C29.6569 32 27.7712 32 24 32H12C8.22876 32 6.34315 32 5.17157 30.8284C4 29.6569 4 27.7712 4 24V8Z"/>
</mask>
<path d="M4 6C2.89543 6 2 6.89543 2 8C2 9.10457 2.89543 10 4 10V6ZM32 10C33.1046 10 34 9.10457 34 8C34 6.89543 33.1046 6 32 6V10ZM14 22C12.8954 22 12 22.8954 12 24C12 25.1046 12.8954 26 14 26V22ZM22 26C23.1046 26 24 25.1046 24 24C24 22.8954 23.1046 22 22 22V26ZM32 6H4V10H32V6ZM14 26H22V22H14V26ZM4 8H8V4H4V8ZM32 8V4H28V8H32ZM35.9202 7.83971L39.1224 10.2368V10.2368L35.9202 7.83971ZM35.8397 7.92022L38.2368 11.1224L35.8397 7.92022ZM0.160289 7.92022L-2.23682 11.1224L-2.23682 11.1224L0.160289 7.92022ZM0.0797835 7.83971L-3.12238 10.2368L0.0797835 7.83971ZM34.3971 0.797835L36.7942 -2.40433L34.3971 0.797835ZM35.2022 1.60289L38.4043 -0.794221V-0.794221L35.2022 1.60289ZM1.60289 0.797835L-0.794221 -2.40433H-0.794221L1.60289 0.797835ZM0.797835 1.60289L-2.40433 -0.794221V-0.794221L0.797835 1.60289ZM28 8V24H36V8H28ZM24 28H12V36H24V28ZM8 24V8H0V24H8ZM7.27273 4H28.7273V-4H7.27273V4ZM4 4H0.727273V12H4V4ZM35.2727 4H32V12H35.2727V4ZM32 7.27273C32 7.31321 32 7.33956 31.9999 7.36239C31.9998 7.38458 31.9996 7.39227 31.9996 7.39162C31.9997 7.39107 32 7.37259 32.0017 7.34223C32.0033 7.31203 32.0068 7.25939 32.0143 7.19107C32.043 6.93189 32.1554 6.19425 32.7181 5.4426L39.1224 10.2368C39.7648 9.37859 39.9171 8.51093 39.9657 8.07164C40.0057 7.71029 40 7.33496 40 7.27273H32ZM35.2727 12C35.335 12 35.7103 12.0057 36.0716 11.9657C36.5109 11.9171 37.3786 11.7648 38.2368 11.1224L33.4426 4.71805C34.1943 4.15537 34.9319 4.04303 35.1911 4.01433C35.2594 4.00676 35.312 4.0033 35.3422 4.00167C35.3726 4.00002 35.3911 3.99965 35.3916 3.99964C35.3923 3.99963 35.3846 3.99978 35.3624 3.99989C35.3396 3.99999 35.3132 4 35.2727 4V12ZM32.7181 5.4426C32.9238 5.16777 33.1678 4.92379 33.4426 4.71805L38.2368 11.1224C38.5727 10.8709 38.8709 10.5727 39.1224 10.2368L32.7181 5.4426ZM0.727273 4C0.686788 4 0.660439 3.99999 0.637609 3.99989C0.615412 3.99978 0.607726 3.99963 0.608369 3.99964C0.608921 3.99965 0.627405 4.00002 0.657762 4.00167C0.687964 4.0033 0.740597 4.00676 0.808918 4.01433C1.0681 4.04303 1.80574 4.15536 2.5574 4.71805L-2.23682 11.1224C-1.37858 11.7649 -0.51092 11.9171 -0.071625 11.9657C0.289714 12.0057 0.665045 12 0.727273 12V4ZM-4 7.27273C-4 7.33495 -4.00574 7.71029 -3.96572 8.07162C-3.91708 8.51092 -3.76485 9.37858 -3.12238 10.2368L3.28195 5.4426C3.84464 6.19426 3.95697 6.9319 3.98567 7.19108C3.99324 7.2594 3.9967 7.31204 3.99833 7.34224C3.99998 7.37259 4.00035 7.39108 4.00036 7.39163C4.00037 7.39227 4.00022 7.38459 4.00011 7.36239C4.00001 7.33956 4 7.31321 4 7.27273H-4ZM2.5574 4.71805C2.83222 4.92378 3.07621 5.16777 3.28195 5.4426L-3.12238 10.2368C-2.87093 10.5727 -2.57272 10.8709 -2.23682 11.1224L2.5574 4.71805ZM28.7273 4C30.3532 4 31.244 4.00574 31.8733 4.07543C32.4246 4.13648 32.2721 4.20366 32 4L36.7942 -2.40433C35.4564 -3.40583 34.0036 -3.73756 32.7538 -3.87597C31.582 -4.00574 30.1707 -4 28.7273 -4V4ZM40 7.27273C40 5.82928 40.0057 4.41804 39.876 3.24619C39.7376 1.99639 39.4058 0.543619 38.4043 -0.794221L32 4C31.7963 3.72794 31.8635 3.57541 31.9246 4.12674C31.9943 4.75602 32 5.6468 32 7.27273H40ZM32 4H32L38.4043 -0.794221C37.9471 -1.40495 37.405 -1.94714 36.7942 -2.40433L32 4ZM7.27273 -4C5.82928 -4 4.41804 -4.00574 3.24619 -3.87597C1.99639 -3.73756 0.54362 -3.40583 -0.794221 -2.40433L4 4C3.72794 4.20366 3.57541 4.13648 4.12674 4.07543C4.75602 4.00574 5.6468 4 7.27273 4V-4ZM4 7.27273C4 5.6468 4.00574 4.75602 4.07543 4.12674C4.13648 3.57541 4.20366 3.72794 4 4L-2.40433 -0.794221C-3.40583 0.54362 -3.73756 1.99639 -3.87597 3.24619C-4.00574 4.41804 -4 5.82928 -4 7.27273H4ZM-0.794221 -2.40433C-1.40495 -1.94714 -1.94714 -1.40495 -2.40433 -0.794221L4 4L-0.794221 -2.40433ZM12 28C10.0013 28 8.90467 27.9915 8.1439 27.8892C7.4982 27.8024 7.71871 27.7187 8 28L2.34315 33.6569C3.79601 35.1097 5.54511 35.6118 7.07792 35.8179C8.49566 36.0085 10.2275 36 12 36V28ZM0 24C0 25.7725 -0.008495 27.5043 0.182115 28.9221C0.388196 30.4549 0.890283 32.204 2.34315 33.6569L8 28C8.28129 28.2813 8.19759 28.5018 8.11078 27.8561C8.0085 27.0953 8 25.9987 8 24H0ZM28 24C28 25.9987 27.9915 27.0953 27.8892 27.8561C27.8024 28.5018 27.7187 28.2813 28 28L33.6569 33.6569C35.1097 32.204 35.6118 30.4549 35.8179 28.9221C36.0085 27.5043 36 25.7725 36 24H28ZM24 36C25.7725 36 27.5043 36.0085 28.9221 35.8179C30.4549 35.6118 32.204 35.1097 33.6569 33.6569L28 28C28.2813 27.7187 28.5018 27.8024 27.8561 27.8892C27.0953 27.9915 25.9987 28 24 28V36Z" fill="#D29A5A" mask="url(#path-1-inside-1_1_150)"/>
<path d="M69.304 9.272V11.048H62.032V16.688H67.936V18.464H62.032V26H59.848V9.272H69.304ZM80.7498 26L76.7658 19.16H74.1258V26H71.9418V9.272H77.3418C78.6058 9.272 79.6698 9.488 80.5338 9.92C81.4138 10.352 82.0698 10.936 82.5018 11.672C82.9338 12.408 83.1498 13.248 83.1498 14.192C83.1498 15.344 82.8138 16.36 82.1418 17.24C81.4858 18.12 80.4938 18.704 79.1658 18.992L83.3658 26H80.7498ZM74.1258 17.408H77.3418C78.5258 17.408 79.4138 17.12 80.0058 16.544C80.5978 15.952 80.8938 15.168 80.8938 14.192C80.8938 13.2 80.5978 12.432 80.0058 11.888C79.4298 11.344 78.5418 11.072 77.3418 11.072H74.1258V17.408ZM88.7273 11.048V16.64H94.8233V18.44H88.7273V24.2H95.5433V26H86.5433V9.248H95.5433V11.048H88.7273ZM101.032 11.048V16.64H107.128V18.44H101.032V24.2H107.848V26H98.848V9.248H107.848V11.048H101.032ZM122.855 26.168C121.751 26.168 120.759 25.976 119.879 25.592C119.015 25.192 118.335 24.648 117.839 23.96C117.343 23.256 117.087 22.448 117.071 21.536H119.399C119.479 22.32 119.799 22.984 120.359 23.528C120.935 24.056 121.767 24.32 122.855 24.32C123.895 24.32 124.711 24.064 125.303 23.552C125.911 23.024 126.215 22.352 126.215 21.536C126.215 20.896 126.039 20.376 125.687 19.976C125.335 19.576 124.895 19.272 124.367 19.064C123.839 18.856 123.127 18.632 122.231 18.392C121.127 18.104 120.239 17.816 119.567 17.528C118.911 17.24 118.343 16.792 117.863 16.184C117.399 15.56 117.167 14.728 117.167 13.688C117.167 12.776 117.399 11.968 117.863 11.264C118.327 10.56 118.975 10.016 119.807 9.632C120.655 9.248 121.623 9.056 122.711 9.056C124.279 9.056 125.559 9.448 126.551 10.232C127.559 11.016 128.127 12.056 128.255 13.352H125.855C125.775 12.712 125.439 12.152 124.847 11.672C124.255 11.176 123.471 10.928 122.495 10.928C121.583 10.928 120.839 11.168 120.263 11.648C119.687 12.112 119.399 12.768 119.399 13.616C119.399 14.224 119.567 14.72 119.903 15.104C120.255 15.488 120.679 15.784 121.175 15.992C121.687 16.184 122.399 16.408 123.311 16.664C124.415 16.968 125.303 17.272 125.975 17.576C126.647 17.864 127.223 18.32 127.703 18.944C128.183 19.552 128.423 20.384 128.423 21.44C128.423 22.256 128.207 23.024 127.775 23.744C127.343 24.464 126.703 25.048 125.855 25.496C125.007 25.944 124.007 26.168 122.855 26.168ZM144.525 9.272V26H142.341V18.416H133.821V26H131.637V9.272H133.821V16.616H142.341V9.272H144.525ZM150.438 9.272V26H148.254V9.272H150.438ZM165.345 14.168C165.345 15.56 164.865 16.72 163.905 17.648C162.961 18.56 161.513 19.016 159.561 19.016H156.345V26H154.161V9.272H159.561C161.449 9.272 162.881 9.728 163.857 10.64C164.849 11.552 165.345 12.728 165.345 14.168ZM159.561 17.216C160.777 17.216 161.673 16.952 162.249 16.424C162.825 15.896 163.113 15.144 163.113 14.168C163.113 12.104 161.929 11.072 159.561 11.072H156.345V17.216H159.561ZM179.243 14.168C179.243 15.56 178.763 16.72 177.803 17.648C176.859 18.56 175.411 19.016 173.459 19.016H170.243V26H168.059V9.272H173.459C175.347 9.272 176.779 9.728 177.755 10.64C178.747 11.552 179.243 12.728 179.243 14.168ZM173.459 17.216C174.675 17.216 175.571 16.952 176.147 16.424C176.723 15.896 177.011 15.144 177.011 14.168C177.011 12.104 175.827 11.072 173.459 11.072H170.243V17.216H173.459ZM184.141 9.272V26H181.957V9.272H184.141ZM201.016 26H198.832L190.048 12.68V26H187.864V9.248H190.048L198.832 22.544V9.248H201.016V26ZM217.411 14.12C216.947 13.144 216.275 12.392 215.395 11.864C214.515 11.32 213.491 11.048 212.323 11.048C211.155 11.048 210.099 11.32 209.155 11.864C208.227 12.392 207.491 13.16 206.947 14.168C206.419 15.16 206.155 16.312 206.155 17.624C206.155 18.936 206.419 20.088 206.947 21.08C207.491 22.072 208.227 22.84 209.155 23.384C210.099 23.912 211.155 24.176 212.323 24.176C213.955 24.176 215.299 23.688 216.355 22.712C217.411 21.736 218.027 20.416 218.203 18.752H211.531V16.976H220.531V18.656C220.403 20.032 219.971 21.296 219.235 22.448C218.499 23.584 217.531 24.488 216.331 25.16C215.131 25.816 213.795 26.144 212.323 26.144C210.771 26.144 209.355 25.784 208.075 25.064C206.795 24.328 205.779 23.312 205.027 22.016C204.291 20.72 203.923 19.256 203.923 17.624C203.923 15.992 204.291 14.528 205.027 13.232C205.779 11.92 206.795 10.904 208.075 10.184C209.355 9.448 210.771 9.08 212.323 9.08C214.099 9.08 215.667 9.52 217.027 10.4C218.403 11.28 219.403 12.52 220.027 14.12H217.411ZM250.841 9.272L245.993 26H243.545L239.657 12.536L235.625 26L233.201 26.024L228.521 9.272H230.849L234.497 23.456L238.529 9.272H240.977L244.817 23.408L248.489 9.272H250.841ZM260.815 26.168C259.263 26.168 257.847 25.808 256.567 25.088C255.287 24.352 254.271 23.336 253.519 22.04C252.783 20.728 252.415 19.256 252.415 17.624C252.415 15.992 252.783 14.528 253.519 13.232C254.271 11.92 255.287 10.904 256.567 10.184C257.847 9.448 259.263 9.08 260.815 9.08C262.383 9.08 263.807 9.448 265.087 10.184C266.367 10.904 267.375 11.912 268.111 13.208C268.847 14.504 269.215 15.976 269.215 17.624C269.215 19.272 268.847 20.744 268.111 22.04C267.375 23.336 266.367 24.352 265.087 25.088C263.807 25.808 262.383 26.168 260.815 26.168ZM260.815 24.272C261.983 24.272 263.031 24 263.959 23.456C264.903 22.912 265.639 22.136 266.167 21.128C266.711 20.12 266.983 18.952 266.983 17.624C266.983 16.28 266.711 15.112 266.167 14.12C265.639 13.112 264.911 12.336 263.983 11.792C263.055 11.248 261.999 10.976 260.815 10.976C259.631 10.976 258.575 11.248 257.647 11.792C256.719 12.336 255.983 13.112 255.439 14.12C254.911 15.112 254.647 16.28 254.647 17.624C254.647 18.952 254.911 20.12 255.439 21.128C255.983 22.136 256.719 22.912 257.647 23.456C258.591 24 259.647 24.272 260.815 24.272ZM280.906 26L276.922 19.16H274.282V26H272.098V9.272H277.498C278.762 9.272 279.826 9.488 280.69 9.92C281.57 10.352 282.226 10.936 282.658 11.672C283.09 12.408 283.306 13.248 283.306 14.192C283.306 15.344 282.97 16.36 282.298 17.24C281.642 18.12 280.65 18.704 279.322 18.992L283.522 26H280.906ZM274.282 17.408H277.498C278.682 17.408 279.57 17.12 280.162 16.544C280.754 15.952 281.05 15.168 281.05 14.192C281.05 13.2 280.754 12.432 280.162 11.888C279.586 11.344 278.698 11.072 277.498 11.072H274.282V17.408ZM288.884 24.224H294.74V26H286.7V9.272H288.884V24.224ZM302.267 9.272C304.091 9.272 305.667 9.616 306.995 10.304C308.339 10.976 309.363 11.944 310.067 13.208C310.787 14.472 311.147 15.96 311.147 17.672C311.147 19.384 310.787 20.872 310.067 22.136C309.363 23.384 308.339 24.344 306.995 25.016C305.667 25.672 304.091 26 302.267 26H297.059V9.272H302.267ZM302.267 24.2C304.427 24.2 306.075 23.632 307.211 22.496C308.347 21.344 308.915 19.736 308.915 17.672C308.915 15.592 308.339 13.968 307.187 12.8C306.051 11.632 304.411 11.048 302.267 11.048H299.243V24.2H302.267ZM335.052 9.272L330.204 26H327.756L323.868 12.536L319.836 26L317.412 26.024L312.732 9.272H315.06L318.708 23.456L322.74 9.272H325.188L329.028 23.408L332.7 9.272H335.052ZM339.626 9.272V26H337.442V9.272H339.626ZM348.556 9.272C350.38 9.272 351.956 9.616 353.284 10.304C354.628 10.976 355.652 11.944 356.356 13.208C357.076 14.472 357.436 15.96 357.436 17.672C357.436 19.384 357.076 20.872 356.356 22.136C355.652 23.384 354.628 24.344 353.284 25.016C351.956 25.672 350.38 26 348.556 26H343.348V9.272H348.556ZM348.556 24.2C350.716 24.2 352.364 23.632 353.5 22.496C354.636 21.344 355.204 19.736 355.204 17.672C355.204 15.592 354.628 13.968 353.476 12.8C352.34 11.632 350.7 11.048 348.556 11.048H345.532V24.2H348.556ZM362.501 11.048V16.64H368.597V18.44H362.501V24.2H369.317V26H360.317V9.248H369.317V11.048H362.501Z" fill="#D29A5A"/>
<path d="M68.89 57.09C68.542 56.358 68.038 55.794 67.378 55.398C66.718 54.99 65.95 54.786 65.074 54.786C64.198 54.786 63.406 54.99 62.698 55.398C62.002 55.794 61.45 56.37 61.042 57.126C60.646 57.87 60.448 58.734 60.448 59.718C60.448 60.702 60.646 61.566 61.042 62.31C61.45 63.054 62.002 63.63 62.698 64.038C63.406 64.434 64.198 64.632 65.074 64.632C66.298 64.632 67.306 64.266 68.098 63.534C68.89 62.802 69.352 61.812 69.484 60.564H64.48V59.232H71.23V60.492C71.134 61.524 70.81 62.472 70.258 63.336C69.706 64.188 68.98 64.866 68.08 65.37C67.18 65.862 66.178 66.108 65.074 66.108C63.91 66.108 62.848 65.838 61.888 65.298C60.928 64.746 60.166 63.984 59.602 63.012C59.05 62.04 58.774 60.942 58.774 59.718C58.774 58.494 59.05 57.396 59.602 56.424C60.166 55.44 60.928 54.678 61.888 54.138C62.848 53.586 63.91 53.31 65.074 53.31C66.406 53.31 67.582 53.64 68.602 54.3C69.634 54.96 70.384 55.89 70.852 57.09H68.89ZM82.1438 56.136V66H80.5058V64.542C80.1938 65.046 79.7558 65.442 79.1918 65.73C78.6398 66.006 78.0278 66.144 77.3558 66.144C76.5878 66.144 75.8978 65.988 75.2858 65.676C74.6738 65.352 74.1878 64.872 73.8278 64.236C73.4798 63.6 73.3058 62.826 73.3058 61.914V56.136H74.9258V61.698C74.9258 62.67 75.1718 63.42 75.6638 63.948C76.1558 64.464 76.8278 64.722 77.6798 64.722C78.5558 64.722 79.2458 64.452 79.7498 63.912C80.2538 63.372 80.5058 62.586 80.5058 61.554V56.136H82.1438ZM84.2974 61.032C84.2974 60.024 84.5014 59.142 84.9094 58.386C85.3174 57.618 85.8754 57.024 86.5834 56.604C87.3034 56.184 88.1014 55.974 88.9774 55.974C89.8414 55.974 90.5914 56.16 91.2274 56.532C91.8634 56.904 92.3374 57.372 92.6494 57.936V56.136H94.3054V66H92.6494V64.164C92.3254 64.74 91.8394 65.22 91.1914 65.604C90.5554 65.976 89.8114 66.162 88.9594 66.162C88.0834 66.162 87.2914 65.946 86.5834 65.514C85.8754 65.082 85.3174 64.476 84.9094 63.696C84.5014 62.916 84.2974 62.028 84.2974 61.032ZM92.6494 61.05C92.6494 60.306 92.4994 59.658 92.1994 59.106C91.8994 58.554 91.4914 58.134 90.9754 57.846C90.4714 57.546 89.9134 57.396 89.3014 57.396C88.6894 57.396 88.1314 57.54 87.6274 57.828C87.1234 58.116 86.7214 58.536 86.4214 59.088C86.1214 59.64 85.9714 60.288 85.9714 61.032C85.9714 61.788 86.1214 62.448 86.4214 63.012C86.7214 63.564 87.1234 63.99 87.6274 64.29C88.1314 64.578 88.6894 64.722 89.3014 64.722C89.9134 64.722 90.4714 64.578 90.9754 64.29C91.4914 63.99 91.8994 63.564 92.1994 63.012C92.4994 62.448 92.6494 61.794 92.6494 61.05ZM98.7115 57.738C98.9995 57.174 99.4075 56.736 99.9355 56.424C100.476 56.112 101.13 55.956 101.898 55.956V57.648H101.466C99.6295 57.648 98.7115 58.644 98.7115 60.636V66H97.0735V56.136H98.7115V57.738ZM103.176 61.032C103.176 60.024 103.38 59.142 103.788 58.386C104.196 57.618 104.754 57.024 105.462 56.604C106.182 56.184 106.98 55.974 107.856 55.974C108.72 55.974 109.47 56.16 110.106 56.532C110.742 56.904 111.216 57.372 111.528 57.936V56.136H113.184V66H111.528V64.164C111.204 64.74 110.718 65.22 110.07 65.604C109.434 65.976 108.69 66.162 107.838 66.162C106.962 66.162 106.17 65.946 105.462 65.514C104.754 65.082 104.196 64.476 103.788 63.696C103.38 62.916 103.176 62.028 103.176 61.032ZM111.528 61.05C111.528 60.306 111.378 59.658 111.078 59.106C110.778 58.554 110.37 58.134 109.854 57.846C109.35 57.546 108.792 57.396 108.18 57.396C107.568 57.396 107.01 57.54 106.506 57.828C106.002 58.116 105.6 58.536 105.3 59.088C105 59.64 104.85 60.288 104.85 61.032C104.85 61.788 105 62.448 105.3 63.012C105.6 63.564 106.002 63.99 106.506 64.29C107.01 64.578 107.568 64.722 108.18 64.722C108.792 64.722 109.35 64.578 109.854 64.29C110.37 63.99 110.778 63.564 111.078 63.012C111.378 62.448 111.528 61.794 111.528 61.05ZM120.758 55.956C121.958 55.956 122.93 56.322 123.674 57.054C124.418 57.774 124.79 58.818 124.79 60.186V66H123.17V60.42C123.17 59.436 122.924 58.686 122.432 58.17C121.94 57.642 121.268 57.378 120.416 57.378C119.552 57.378 118.862 57.648 118.346 58.188C117.842 58.728 117.59 59.514 117.59 60.546V66H115.952V56.136H117.59V57.54C117.914 57.036 118.352 56.646 118.904 56.37C119.468 56.094 120.086 55.956 120.758 55.956ZM129.464 57.486V63.3C129.464 63.78 129.566 64.122 129.77 64.326C129.974 64.518 130.328 64.614 130.832 64.614H132.038V66H130.562C129.65 66 128.966 65.79 128.51 65.37C128.054 64.95 127.826 64.26 127.826 63.3V57.486H126.548V56.136H127.826V53.652H129.464V56.136H132.038V57.486H129.464ZM143.023 60.69C143.023 61.002 143.005 61.332 142.969 61.68H135.085C135.145 62.652 135.475 63.414 136.075 63.966C136.687 64.506 137.425 64.776 138.289 64.776C138.997 64.776 139.585 64.614 140.053 64.29C140.533 63.954 140.869 63.51 141.061 62.958H142.825C142.561 63.906 142.033 64.68 141.241 65.28C140.449 65.868 139.465 66.162 138.289 66.162C137.353 66.162 136.513 65.952 135.769 65.532C135.037 65.112 134.461 64.518 134.041 63.75C133.621 62.97 133.411 62.07 133.411 61.05C133.411 60.03 133.615 59.136 134.023 58.368C134.431 57.6 135.001 57.012 135.733 56.604C136.477 56.184 137.329 55.974 138.289 55.974C139.225 55.974 140.053 56.178 140.773 56.586C141.493 56.994 142.045 57.558 142.429 58.278C142.825 58.986 143.023 59.79 143.023 60.69ZM141.331 60.348C141.331 59.724 141.193 59.19 140.917 58.746C140.641 58.29 140.263 57.948 139.783 57.72C139.315 57.48 138.793 57.36 138.217 57.36C137.389 57.36 136.681 57.624 136.093 58.152C135.517 58.68 135.187 59.412 135.103 60.348H141.331ZM154.185 60.69C154.185 61.002 154.167 61.332 154.131 61.68H146.247C146.307 62.652 146.637 63.414 147.237 63.966C147.849 64.506 148.587 64.776 149.451 64.776C150.159 64.776 150.747 64.614 151.215 64.29C151.695 63.954 152.031 63.51 152.223 62.958H153.987C153.723 63.906 153.195 64.68 152.403 65.28C151.611 65.868 150.627 66.162 149.451 66.162C148.515 66.162 147.675 65.952 146.931 65.532C146.199 65.112 145.623 64.518 145.203 63.75C144.783 62.97 144.573 62.07 144.573 61.05C144.573 60.03 144.777 59.136 145.185 58.368C145.593 57.6 146.163 57.012 146.895 56.604C147.639 56.184 148.491 55.974 149.451 55.974C150.387 55.974 151.215 56.178 151.935 56.586C152.655 56.994 153.207 57.558 153.591 58.278C153.987 58.986 154.185 59.79 154.185 60.69ZM152.493 60.348C152.493 59.724 152.355 59.19 152.079 58.746C151.803 58.29 151.425 57.948 150.945 57.72C150.477 57.48 149.955 57.36 149.379 57.36C148.551 57.36 147.843 57.624 147.255 58.152C146.679 58.68 146.349 59.412 146.265 60.348H152.493ZM155.735 61.032C155.735 60.024 155.939 59.142 156.347 58.386C156.755 57.618 157.313 57.024 158.021 56.604C158.741 56.184 159.545 55.974 160.433 55.974C161.201 55.974 161.915 56.154 162.575 56.514C163.235 56.862 163.739 57.324 164.087 57.9V52.68H165.743V66H164.087V64.146C163.763 64.734 163.283 65.22 162.647 65.604C162.011 65.976 161.267 66.162 160.415 66.162C159.539 66.162 158.741 65.946 158.021 65.514C157.313 65.082 156.755 64.476 156.347 63.696C155.939 62.916 155.735 62.028 155.735 61.032ZM164.087 61.05C164.087 60.306 163.937 59.658 163.637 59.106C163.337 58.554 162.929 58.134 162.413 57.846C161.909 57.546 161.351 57.396 160.739 57.396C160.127 57.396 159.569 57.54 159.065 57.828C158.561 58.116 158.159 58.536 157.859 59.088C157.559 59.64 157.409 60.288 157.409 61.032C157.409 61.788 157.559 62.448 157.859 63.012C158.159 63.564 158.561 63.99 159.065 64.29C159.569 64.578 160.127 64.722 160.739 64.722C161.351 64.722 161.909 64.578 162.413 64.29C162.929 63.99 163.337 63.564 163.637 63.012C163.937 62.448 164.087 61.794 164.087 61.05ZM177.216 53.454C178.584 53.454 179.766 53.712 180.762 54.228C181.77 54.732 182.538 55.458 183.066 56.406C183.606 57.354 183.876 58.47 183.876 59.754C183.876 61.038 183.606 62.154 183.066 63.102C182.538 64.038 181.77 64.758 180.762 65.262C179.766 65.754 178.584 66 177.216 66H173.31V53.454H177.216ZM177.216 64.65C178.836 64.65 180.072 64.224 180.924 63.372C181.776 62.508 182.202 61.302 182.202 59.754C182.202 58.194 181.77 56.976 180.906 56.1C180.054 55.224 178.824 54.786 177.216 54.786H174.948V64.65H177.216ZM195.036 60.69C195.036 61.002 195.018 61.332 194.982 61.68H187.098C187.158 62.652 187.488 63.414 188.088 63.966C188.7 64.506 189.438 64.776 190.302 64.776C191.01 64.776 191.598 64.614 192.066 64.29C192.546 63.954 192.882 63.51 193.074 62.958H194.838C194.574 63.906 194.046 64.68 193.254 65.28C192.462 65.868 191.478 66.162 190.302 66.162C189.366 66.162 188.526 65.952 187.782 65.532C187.05 65.112 186.474 64.518 186.054 63.75C185.634 62.97 185.424 62.07 185.424 61.05C185.424 60.03 185.628 59.136 186.036 58.368C186.444 57.6 187.014 57.012 187.746 56.604C188.49 56.184 189.342 55.974 190.302 55.974C191.238 55.974 192.066 56.178 192.786 56.586C193.506 56.994 194.058 57.558 194.442 58.278C194.838 58.986 195.036 59.79 195.036 60.69ZM193.344 60.348C193.344 59.724 193.206 59.19 192.93 58.746C192.654 58.29 192.276 57.948 191.796 57.72C191.328 57.48 190.806 57.36 190.23 57.36C189.402 57.36 188.694 57.624 188.106 58.152C187.53 58.68 187.2 59.412 187.116 60.348H193.344ZM198.837 52.68V66H197.199V52.68H198.837ZM202.474 54.534C202.162 54.534 201.898 54.426 201.682 54.21C201.466 53.994 201.358 53.73 201.358 53.418C201.358 53.106 201.466 52.842 201.682 52.626C201.898 52.41 202.162 52.302 202.474 52.302C202.774 52.302 203.026 52.41 203.23 52.626C203.446 52.842 203.554 53.106 203.554 53.418C203.554 53.73 203.446 53.994 203.23 54.21C203.026 54.426 202.774 54.534 202.474 54.534ZM203.266 56.136V66H201.628V56.136H203.266ZM209.73 64.488L212.79 56.136H214.536L210.666 66H208.758L204.888 56.136H206.652L209.73 64.488ZM225.148 60.69C225.148 61.002 225.13 61.332 225.094 61.68H217.21C217.27 62.652 217.6 63.414 218.2 63.966C218.812 64.506 219.55 64.776 220.414 64.776C221.122 64.776 221.71 64.614 222.178 64.29C222.658 63.954 222.994 63.51 223.186 62.958H224.95C224.686 63.906 224.158 64.68 223.366 65.28C222.574 65.868 221.59 66.162 220.414 66.162C219.478 66.162 218.638 65.952 217.894 65.532C217.162 65.112 216.586 64.518 216.166 63.75C215.746 62.97 215.536 62.07 215.536 61.05C215.536 60.03 215.74 59.136 216.148 58.368C216.556 57.6 217.126 57.012 217.858 56.604C218.602 56.184 219.454 55.974 220.414 55.974C221.35 55.974 222.178 56.178 222.898 56.586C223.618 56.994 224.17 57.558 224.554 58.278C224.95 58.986 225.148 59.79 225.148 60.69ZM223.456 60.348C223.456 59.724 223.318 59.19 223.042 58.746C222.766 58.29 222.388 57.948 221.908 57.72C221.44 57.48 220.918 57.36 220.342 57.36C219.514 57.36 218.806 57.624 218.218 58.152C217.642 58.68 217.312 59.412 217.228 60.348H223.456ZM228.948 57.738C229.236 57.174 229.644 56.736 230.172 56.424C230.712 56.112 231.366 55.956 232.134 55.956V57.648H231.702C229.866 57.648 228.948 58.644 228.948 60.636V66H227.31V56.136H228.948V57.738ZM242.521 56.136L236.581 70.644H234.889L236.833 65.892L232.855 56.136H234.673L237.769 64.128L240.829 56.136H242.521Z" fill="white"/>
</svg>
