<svg width="347" height="75" viewBox="0 0 347 75" fill="none" xmlns="http://www.w3.org/2000/svg">
<path d="M0 24V18C6.20722e-07 13.2261 1.63303 8.64773 4.53985 5.27208C7.44666 1.89642 11.3891 -3.60419e-07 15.5 0C19.6109 3.60419e-07 23.5533 1.89642 26.4602 5.27208C29.367 8.64773 31 13.2261 31 18V24M27.125 30C24.9849 30 23.25 28.2091 23.25 26V20C23.25 17.7909 24.9849 16 27.125 16C29.2651 16 31 17.7909 31 20V26C31 28.2091 29.2651 30 27.125 30ZM3.875 30C1.7349 30 0 28.2091 0 26V20C0 17.7909 1.7349 16 3.875 16C6.0151 16 7.75 17.7909 7.75 20V26C7.75 28.2091 6.0151 30 3.875 30Z" stroke="#D29A5A" stroke-width="4" stroke-linecap="round" stroke-linejoin="round"/>
<path d="M59.224 24.248C61.256 22.616 62.848 21.28 64 20.24C65.152 19.184 66.12 18.088 66.904 16.952C67.704 15.8 68.104 14.672 68.104 13.568C68.104 12.528 67.848 11.712 67.336 11.12C66.84 10.512 66.032 10.208 64.912 10.208C63.824 10.208 62.976 10.552 62.368 11.24C61.776 11.912 61.456 12.816 61.408 13.952H59.296C59.36 12.16 59.904 10.776 60.928 9.8C61.952 8.824 63.272 8.336 64.888 8.336C66.536 8.336 67.84 8.792 68.8 9.704C69.776 10.616 70.264 11.872 70.264 13.472C70.264 14.8 69.864 16.096 69.064 17.36C68.28 18.608 67.384 19.712 66.376 20.672C65.368 21.616 64.08 22.72 62.512 23.984H70.768V25.808H59.224V24.248ZM72.7647 22.136V20.48L81.1887 8.816H83.8047V20.24H86.2047V22.136H83.8047V26H81.6447V22.136H72.7647ZM81.7407 11.096L75.2847 20.24H81.7407V11.096ZM96.9064 3.392L90.3304 30.08H88.1704L94.7224 3.392H96.9064ZM110.481 10.352L103.809 26H101.601L108.369 10.568H99.1045V8.696H110.481V10.352ZM118.845 17.624C118.845 15.992 119.213 14.528 119.949 13.232C120.685 11.92 121.685 10.896 122.949 10.16C124.229 9.424 125.645 9.056 127.197 9.056C129.021 9.056 130.613 9.496 131.973 10.376C133.333 11.256 134.325 12.504 134.949 14.12H132.333C131.869 13.112 131.197 12.336 130.317 11.792C129.453 11.248 128.413 10.976 127.197 10.976C126.029 10.976 124.981 11.248 124.053 11.792C123.125 12.336 122.397 13.112 121.869 14.12C121.341 15.112 121.077 16.28 121.077 17.624C121.077 18.952 121.341 20.12 121.869 21.128C122.397 22.12 123.125 22.888 124.053 23.432C124.981 23.976 126.029 24.248 127.197 24.248C128.413 24.248 129.453 23.984 130.317 23.456C131.197 22.912 131.869 22.136 132.333 21.128H134.949C134.325 22.728 133.333 23.968 131.973 24.848C130.613 25.712 129.021 26.144 127.197 26.144C125.645 26.144 124.229 25.784 122.949 25.064C121.685 24.328 120.685 23.312 119.949 22.016C119.213 20.72 118.845 19.256 118.845 17.624ZM140.336 9.272V19.856C140.336 21.344 140.696 22.448 141.416 23.168C142.152 23.888 143.168 24.248 144.464 24.248C145.744 24.248 146.744 23.888 147.464 23.168C148.2 22.448 148.568 21.344 148.568 19.856V9.272H150.752V19.832C150.752 21.224 150.472 22.4 149.912 23.36C149.352 24.304 148.592 25.008 147.632 25.472C146.688 25.936 145.624 26.168 144.44 26.168C143.256 26.168 142.184 25.936 141.224 25.472C140.28 25.008 139.528 24.304 138.968 23.36C138.424 22.4 138.152 21.224 138.152 19.832V9.272H140.336ZM159.699 26.168C158.595 26.168 157.603 25.976 156.723 25.592C155.859 25.192 155.179 24.648 154.683 23.96C154.187 23.256 153.931 22.448 153.915 21.536H156.243C156.323 22.32 156.643 22.984 157.203 23.528C157.779 24.056 158.611 24.32 159.699 24.32C160.739 24.32 161.555 24.064 162.147 23.552C162.755 23.024 163.059 22.352 163.059 21.536C163.059 20.896 162.883 20.376 162.531 19.976C162.179 19.576 161.739 19.272 161.211 19.064C160.683 18.856 159.971 18.632 159.075 18.392C157.971 18.104 157.083 17.816 156.411 17.528C155.755 17.24 155.187 16.792 154.707 16.184C154.243 15.56 154.011 14.728 154.011 13.688C154.011 12.776 154.243 11.968 154.707 11.264C155.171 10.56 155.819 10.016 156.651 9.632C157.499 9.248 158.467 9.056 159.555 9.056C161.123 9.056 162.403 9.448 163.395 10.232C164.403 11.016 164.971 12.056 165.099 13.352H162.699C162.619 12.712 162.283 12.152 161.691 11.672C161.099 11.176 160.315 10.928 159.339 10.928C158.427 10.928 157.683 11.168 157.107 11.648C156.531 12.112 156.243 12.768 156.243 13.616C156.243 14.224 156.411 14.72 156.747 15.104C157.099 15.488 157.523 15.784 158.019 15.992C158.531 16.184 159.243 16.408 160.155 16.664C161.259 16.968 162.147 17.272 162.819 17.576C163.491 17.864 164.067 18.32 164.547 18.944C165.027 19.552 165.267 20.384 165.267 21.44C165.267 22.256 165.051 23.024 164.619 23.744C164.187 24.464 163.547 25.048 162.699 25.496C161.851 25.944 160.851 26.168 159.699 26.168ZM178.777 9.272V11.048H174.217V26H172.033V11.048H167.449V9.272H178.777ZM189.049 26.168C187.497 26.168 186.081 25.808 184.801 25.088C183.521 24.352 182.505 23.336 181.753 22.04C181.017 20.728 180.649 19.256 180.649 17.624C180.649 15.992 181.017 14.528 181.753 13.232C182.505 11.92 183.521 10.904 184.801 10.184C186.081 9.448 187.497 9.08 189.049 9.08C190.617 9.08 192.041 9.448 193.321 10.184C194.601 10.904 195.609 11.912 196.345 13.208C197.081 14.504 197.449 15.976 197.449 17.624C197.449 19.272 197.081 20.744 196.345 22.04C195.609 23.336 194.601 24.352 193.321 25.088C192.041 25.808 190.617 26.168 189.049 26.168ZM189.049 24.272C190.217 24.272 191.265 24 192.193 23.456C193.137 22.912 193.873 22.136 194.401 21.128C194.945 20.12 195.217 18.952 195.217 17.624C195.217 16.28 194.945 15.112 194.401 14.12C193.873 13.112 193.145 12.336 192.217 11.792C191.289 11.248 190.233 10.976 189.049 10.976C187.865 10.976 186.809 11.248 185.881 11.792C184.953 12.336 184.217 13.112 183.673 14.12C183.145 15.112 182.881 16.28 182.881 17.624C182.881 18.952 183.145 20.12 183.673 21.128C184.217 22.136 184.953 22.912 185.881 23.456C186.825 24 187.881 24.272 189.049 24.272ZM217.3 9.392V26H215.116V13.616L209.596 26H208.06L202.516 13.592V26H200.332V9.392H202.684L208.828 23.12L214.972 9.392H217.3ZM223.188 11.048V16.64H229.284V18.44H223.188V24.2H230.004V26H221.004V9.248H230.004V11.048H223.188ZM242.117 26L238.133 19.16H235.493V26H233.309V9.272H238.709C239.973 9.272 241.037 9.488 241.901 9.92C242.781 10.352 243.437 10.936 243.869 11.672C244.301 12.408 244.517 13.248 244.517 14.192C244.517 15.344 244.181 16.36 243.509 17.24C242.853 18.12 241.861 18.704 240.533 18.992L244.733 26H242.117ZM235.493 17.408H238.709C239.893 17.408 240.781 17.12 241.373 16.544C241.965 15.952 242.261 15.168 242.261 14.192C242.261 13.2 241.965 12.432 241.373 11.888C240.797 11.344 239.909 11.072 238.709 11.072H235.493V17.408ZM259.613 26.168C258.509 26.168 257.517 25.976 256.637 25.592C255.773 25.192 255.093 24.648 254.597 23.96C254.101 23.256 253.845 22.448 253.829 21.536H256.157C256.237 22.32 256.557 22.984 257.117 23.528C257.693 24.056 258.525 24.32 259.613 24.32C260.653 24.32 261.469 24.064 262.061 23.552C262.669 23.024 262.973 22.352 262.973 21.536C262.973 20.896 262.797 20.376 262.445 19.976C262.093 19.576 261.653 19.272 261.125 19.064C260.597 18.856 259.885 18.632 258.989 18.392C257.885 18.104 256.997 17.816 256.325 17.528C255.669 17.24 255.101 16.792 254.621 16.184C254.157 15.56 253.925 14.728 253.925 13.688C253.925 12.776 254.157 11.968 254.621 11.264C255.085 10.56 255.733 10.016 256.565 9.632C257.413 9.248 258.381 9.056 259.469 9.056C261.037 9.056 262.317 9.448 263.309 10.232C264.317 11.016 264.885 12.056 265.013 13.352H262.613C262.533 12.712 262.197 12.152 261.605 11.672C261.013 11.176 260.229 10.928 259.253 10.928C258.341 10.928 257.597 11.168 257.021 11.648C256.445 12.112 256.157 12.768 256.157 13.616C256.157 14.224 256.325 14.72 256.661 15.104C257.013 15.488 257.437 15.784 257.933 15.992C258.445 16.184 259.157 16.408 260.069 16.664C261.173 16.968 262.061 17.272 262.733 17.576C263.405 17.864 263.981 18.32 264.461 18.944C264.941 19.552 265.181 20.384 265.181 21.44C265.181 22.256 264.965 23.024 264.533 23.744C264.101 24.464 263.461 25.048 262.613 25.496C261.765 25.944 260.765 26.168 259.613 26.168ZM270.579 11.048V16.64H276.675V18.44H270.579V24.2H277.395V26H268.395V9.248H277.395V11.048H270.579ZM289.508 26L285.524 19.16H282.884V26H280.7V9.272H286.1C287.364 9.272 288.428 9.488 289.292 9.92C290.172 10.352 290.828 10.936 291.26 11.672C291.692 12.408 291.908 13.248 291.908 14.192C291.908 15.344 291.572 16.36 290.9 17.24C290.244 18.12 289.252 18.704 287.924 18.992L292.124 26H289.508ZM282.884 17.408H286.1C287.284 17.408 288.172 17.12 288.764 16.544C289.356 15.952 289.652 15.168 289.652 14.192C289.652 13.2 289.356 12.432 288.764 11.888C288.188 11.344 287.3 11.072 286.1 11.072H282.884V17.408ZM309.125 9.272L302.813 26H300.293L293.981 9.272H296.309L301.565 23.696L306.821 9.272H309.125ZM313.704 9.272V26H311.52V9.272H313.704ZM316.61 17.624C316.61 15.992 316.978 14.528 317.714 13.232C318.45 11.92 319.45 10.896 320.714 10.16C321.994 9.424 323.41 9.056 324.962 9.056C326.786 9.056 328.378 9.496 329.738 10.376C331.098 11.256 332.09 12.504 332.714 14.12H330.098C329.634 13.112 328.962 12.336 328.082 11.792C327.218 11.248 326.178 10.976 324.962 10.976C323.794 10.976 322.746 11.248 321.818 11.792C320.89 12.336 320.162 13.112 319.634 14.12C319.106 15.112 318.842 16.28 318.842 17.624C318.842 18.952 319.106 20.12 319.634 21.128C320.162 22.12 320.89 22.888 321.818 23.432C322.746 23.976 323.794 24.248 324.962 24.248C326.178 24.248 327.218 23.984 328.082 23.456C328.962 22.912 329.634 22.136 330.098 21.128H332.714C332.09 22.728 331.098 23.968 329.738 24.848C328.378 25.712 326.786 26.144 324.962 26.144C323.41 26.144 321.994 25.784 320.714 25.064C319.45 24.328 318.45 23.312 317.714 22.016C316.978 20.72 316.61 19.256 316.61 17.624ZM338.149 11.048V16.64H344.245V18.44H338.149V24.2H344.965V26H335.965V9.248H344.965V11.048H338.149Z" fill="#D29A5A"/>
<path d="M67.108 55.454V56.786H63.688V68H62.05V56.786H58.612V55.454H67.108ZM78.1243 62.69C78.1243 63.002 78.1063 63.332 78.0703 63.68H70.1863C70.2463 64.652 70.5763 65.414 71.1763 65.966C71.7883 66.506 72.5263 66.776 73.3903 66.776C74.0983 66.776 74.6863 66.614 75.1543 66.29C75.6343 65.954 75.9703 65.51 76.1623 64.958H77.9263C77.6623 65.906 77.1343 66.68 76.3423 67.28C75.5503 67.868 74.5663 68.162 73.3903 68.162C72.4543 68.162 71.6143 67.952 70.8703 67.532C70.1383 67.112 69.5623 66.518 69.1423 65.75C68.7223 64.97 68.5123 64.07 68.5123 63.05C68.5123 62.03 68.7163 61.136 69.1243 60.368C69.5323 59.6 70.1023 59.012 70.8343 58.604C71.5783 58.184 72.4303 57.974 73.3903 57.974C74.3263 57.974 75.1543 58.178 75.8743 58.586C76.5943 58.994 77.1463 59.558 77.5303 60.278C77.9263 60.986 78.1243 61.79 78.1243 62.69ZM76.4323 62.348C76.4323 61.724 76.2943 61.19 76.0183 60.746C75.7423 60.29 75.3643 59.948 74.8843 59.72C74.4163 59.48 73.8943 59.36 73.3183 59.36C72.4903 59.36 71.7823 59.624 71.1943 60.152C70.6183 60.68 70.2883 61.412 70.2043 62.348H76.4323ZM85.4344 68L83.0944 64.328L80.8444 68H79.1344L82.3204 63.104L79.1344 58.136H80.9884L83.3284 61.79L85.5604 58.136H87.2704L84.1024 63.014L87.2884 68H85.4344ZM90.8977 59.486V65.3C90.8977 65.78 90.9997 66.122 91.2037 66.326C91.4077 66.518 91.7617 66.614 92.2657 66.614H93.4717V68H91.9957C91.0837 68 90.3997 67.79 89.9437 67.37C89.4877 66.95 89.2597 66.26 89.2597 65.3V59.486H87.9817V58.136H89.2597V55.652H90.8977V58.136H93.4717V59.486H90.8977ZM101.857 55.454V63.392C101.857 64.508 102.127 65.336 102.667 65.876C103.219 66.416 103.981 66.686 104.953 66.686C105.913 66.686 106.663 66.416 107.203 65.876C107.755 65.336 108.031 64.508 108.031 63.392V55.454H109.669V63.374C109.669 64.418 109.459 65.3 109.039 66.02C108.619 66.728 108.049 67.256 107.329 67.604C106.621 67.952 105.823 68.126 104.935 68.126C104.047 68.126 103.243 67.952 102.523 67.604C101.815 67.256 101.251 66.728 100.831 66.02C100.423 65.3 100.219 64.418 100.219 63.374V55.454H101.857ZM115.894 68.162C115.138 68.162 114.46 68.036 113.86 67.784C113.26 67.52 112.786 67.16 112.438 66.704C112.09 66.236 111.898 65.702 111.862 65.102H113.554C113.602 65.594 113.83 65.996 114.238 66.308C114.658 66.62 115.204 66.776 115.876 66.776C116.5 66.776 116.992 66.638 117.352 66.362C117.712 66.086 117.892 65.738 117.892 65.318C117.892 64.886 117.7 64.568 117.316 64.364C116.932 64.148 116.338 63.938 115.534 63.734C114.802 63.542 114.202 63.35 113.734 63.158C113.278 62.954 112.882 62.66 112.546 62.276C112.222 61.88 112.06 61.364 112.06 60.728C112.06 60.224 112.21 59.762 112.51 59.342C112.81 58.922 113.236 58.592 113.788 58.352C114.34 58.1 114.97 57.974 115.678 57.974C116.77 57.974 117.652 58.25 118.324 58.802C118.996 59.354 119.356 60.11 119.404 61.07H117.766C117.73 60.554 117.52 60.14 117.136 59.828C116.764 59.516 116.26 59.36 115.624 59.36C115.036 59.36 114.568 59.486 114.22 59.738C113.872 59.99 113.698 60.32 113.698 60.728C113.698 61.052 113.8 61.322 114.004 61.538C114.22 61.742 114.484 61.91 114.796 62.042C115.12 62.162 115.564 62.3 116.128 62.456C116.836 62.648 117.412 62.84 117.856 63.032C118.3 63.212 118.678 63.488 118.99 63.86C119.314 64.232 119.482 64.718 119.494 65.318C119.494 65.858 119.344 66.344 119.044 66.776C118.744 67.208 118.318 67.55 117.766 67.802C117.226 68.042 116.602 68.162 115.894 68.162ZM126.137 66.686C127.661 65.462 128.855 64.46 129.719 63.68C130.583 62.888 131.309 62.066 131.897 61.214C132.497 60.35 132.797 59.504 132.797 58.676C132.797 57.896 132.605 57.284 132.221 56.84C131.849 56.384 131.243 56.156 130.403 56.156C129.587 56.156 128.951 56.414 128.495 56.93C128.051 57.434 127.811 58.112 127.775 58.964H126.191C126.239 57.62 126.647 56.582 127.415 55.85C128.183 55.118 129.173 54.752 130.385 54.752C131.621 54.752 132.599 55.094 133.319 55.778C134.051 56.462 134.417 57.404 134.417 58.604C134.417 59.6 134.117 60.572 133.517 61.52C132.929 62.456 132.257 63.284 131.501 64.004C130.745 64.712 129.779 65.54 128.603 66.488H134.795V67.856H126.137V66.686ZM136.292 65.102V63.86L142.61 55.112H144.572V63.68H146.372V65.102H144.572V68H142.952V65.102H136.292ZM143.024 56.822L138.182 63.68H143.024V56.822ZM154.399 51.044L149.467 71.06H147.847L152.761 51.044H154.399ZM164.579 56.264L159.575 68H157.919L162.995 56.426H156.047V55.022H164.579V56.264ZM170.852 63.032C170.852 62.024 171.056 61.142 171.464 60.386C171.872 59.618 172.43 59.024 173.138 58.604C173.858 58.184 174.656 57.974 175.532 57.974C176.396 57.974 177.146 58.16 177.782 58.532C178.418 58.904 178.892 59.372 179.204 59.936V58.136H180.86V68H179.204V66.164C178.88 66.74 178.394 67.22 177.746 67.604C177.11 67.976 176.366 68.162 175.514 68.162C174.638 68.162 173.846 67.946 173.138 67.514C172.43 67.082 171.872 66.476 171.464 65.696C171.056 64.916 170.852 64.028 170.852 63.032ZM179.204 63.05C179.204 62.306 179.054 61.658 178.754 61.106C178.454 60.554 178.046 60.134 177.53 59.846C177.026 59.546 176.468 59.396 175.856 59.396C175.244 59.396 174.686 59.54 174.182 59.828C173.678 60.116 173.276 60.536 172.976 61.088C172.676 61.64 172.526 62.288 172.526 63.032C172.526 63.788 172.676 64.448 172.976 65.012C173.276 65.564 173.678 65.99 174.182 66.29C174.686 66.578 175.244 66.722 175.856 66.722C176.468 66.722 177.026 66.578 177.53 66.29C178.046 65.99 178.454 65.564 178.754 65.012C179.054 64.448 179.204 63.794 179.204 63.05ZM185.626 59.486V65.3C185.626 65.78 185.728 66.122 185.932 66.326C186.136 66.518 186.49 66.614 186.994 66.614H188.2V68H186.724C185.812 68 185.128 67.79 184.672 67.37C184.216 66.95 183.988 66.26 183.988 65.3V59.486H182.71V58.136H183.988V55.652H185.626V58.136H188.2V59.486H185.626ZM194.714 61.358C194.714 59.294 195.05 57.686 195.722 56.534C196.394 55.37 197.57 54.788 199.25 54.788C200.918 54.788 202.088 55.37 202.76 56.534C203.432 57.686 203.768 59.294 203.768 61.358C203.768 63.458 203.432 65.09 202.76 66.254C202.088 67.418 200.918 68 199.25 68C197.57 68 196.394 67.418 195.722 66.254C195.05 65.09 194.714 63.458 194.714 61.358ZM202.148 61.358C202.148 60.314 202.076 59.432 201.932 58.712C201.8 57.98 201.518 57.392 201.086 56.948C200.666 56.504 200.054 56.282 199.25 56.282C198.434 56.282 197.81 56.504 197.378 56.948C196.958 57.392 196.676 57.98 196.532 58.712C196.4 59.432 196.334 60.314 196.334 61.358C196.334 62.438 196.4 63.344 196.532 64.076C196.676 64.808 196.958 65.396 197.378 65.84C197.81 66.284 198.434 66.506 199.25 66.506C200.054 66.506 200.666 66.284 201.086 65.84C201.518 65.396 201.8 64.808 201.932 64.076C202.076 63.344 202.148 62.438 202.148 61.358ZM214.026 56.264L209.022 68H207.366L212.442 56.426H205.494V55.022H214.026V56.264ZM215.843 61.358C215.843 59.294 216.179 57.686 216.851 56.534C217.523 55.37 218.699 54.788 220.379 54.788C222.047 54.788 223.217 55.37 223.889 56.534C224.561 57.686 224.897 59.294 224.897 61.358C224.897 63.458 224.561 65.09 223.889 66.254C223.217 67.418 222.047 68 220.379 68C218.699 68 217.523 67.418 216.851 66.254C216.179 65.09 215.843 63.458 215.843 61.358ZM223.277 61.358C223.277 60.314 223.205 59.432 223.061 58.712C222.929 57.98 222.647 57.392 222.215 56.948C221.795 56.504 221.183 56.282 220.379 56.282C219.563 56.282 218.939 56.504 218.507 56.948C218.087 57.392 217.805 57.98 217.661 58.712C217.529 59.432 217.463 60.314 217.463 61.358C217.463 62.438 217.529 63.344 217.661 64.076C217.805 64.808 218.087 65.396 218.507 65.84C218.939 66.284 219.563 66.506 220.379 66.506C221.183 66.506 221.795 66.284 222.215 65.84C222.647 65.396 222.929 64.808 223.061 64.076C223.205 63.344 223.277 62.438 223.277 61.358ZM234.255 60.71V62.096H227.073V60.71H234.255ZM245.069 56.264L240.065 68H238.409L243.485 56.426H236.537V55.022H245.069V56.264ZM254.896 56.264L249.892 68H248.236L253.312 56.426H246.364V55.022H254.896V56.264ZM259.088 61.232C258.416 60.968 257.9 60.584 257.54 60.08C257.18 59.576 257 58.964 257 58.244C257 57.596 257.162 57.014 257.486 56.498C257.81 55.97 258.29 55.556 258.926 55.256C259.574 54.944 260.354 54.788 261.266 54.788C262.178 54.788 262.952 54.944 263.588 55.256C264.236 55.556 264.722 55.97 265.046 56.498C265.382 57.014 265.55 57.596 265.55 58.244C265.55 58.94 265.364 59.552 264.992 60.08C264.62 60.596 264.11 60.98 263.462 61.232C264.206 61.46 264.794 61.862 265.226 62.438C265.67 63.002 265.892 63.686 265.892 64.49C265.892 65.27 265.7 65.954 265.316 66.542C264.932 67.118 264.386 67.568 263.678 67.892C262.982 68.204 262.178 68.36 261.266 68.36C260.354 68.36 259.55 68.204 258.854 67.892C258.17 67.568 257.636 67.118 257.252 66.542C256.868 65.954 256.676 65.27 256.676 64.49C256.676 63.686 256.892 62.996 257.324 62.42C257.756 61.844 258.344 61.448 259.088 61.232ZM263.966 58.442C263.966 57.71 263.726 57.146 263.246 56.75C262.766 56.354 262.106 56.156 261.266 56.156C260.438 56.156 259.784 56.354 259.304 56.75C258.824 57.146 258.584 57.716 258.584 58.46C258.584 59.132 258.83 59.672 259.322 60.08C259.826 60.488 260.474 60.692 261.266 60.692C262.07 60.692 262.718 60.488 263.21 60.08C263.714 59.66 263.966 59.114 263.966 58.442ZM261.266 61.952C260.378 61.952 259.652 62.162 259.088 62.582C258.524 62.99 258.242 63.608 258.242 64.436C258.242 65.204 258.512 65.822 259.052 66.29C259.604 66.758 260.342 66.992 261.266 66.992C262.19 66.992 262.922 66.758 263.462 66.29C264.002 65.822 264.272 65.204 264.272 64.436C264.272 63.632 263.996 63.02 263.444 62.6C262.892 62.168 262.166 61.952 261.266 61.952ZM267.869 66.686C269.393 65.462 270.587 64.46 271.451 63.68C272.315 62.888 273.041 62.066 273.629 61.214C274.229 60.35 274.529 59.504 274.529 58.676C274.529 57.896 274.337 57.284 273.953 56.84C273.581 56.384 272.975 56.156 272.135 56.156C271.319 56.156 270.683 56.414 270.227 56.93C269.783 57.434 269.543 58.112 269.507 58.964H267.923C267.971 57.62 268.379 56.582 269.147 55.85C269.915 55.118 270.905 54.752 272.117 54.752C273.353 54.752 274.331 55.094 275.051 55.778C275.783 56.462 276.149 57.404 276.149 58.604C276.149 59.6 275.849 60.572 275.249 61.52C274.661 62.456 273.989 63.284 273.233 64.004C272.477 64.712 271.511 65.54 270.335 66.488H276.527V67.856H267.869V66.686ZM285.531 60.71V62.096H278.349V60.71H285.531ZM290.441 64.508C290.561 65.192 290.837 65.72 291.269 66.092C291.713 66.464 292.307 66.65 293.051 66.65C294.047 66.65 294.779 66.26 295.247 65.48C295.727 64.7 295.955 63.386 295.931 61.538C295.679 62.078 295.259 62.504 294.671 62.816C294.083 63.116 293.429 63.266 292.709 63.266C291.905 63.266 291.185 63.104 290.549 62.78C289.925 62.444 289.433 61.958 289.073 61.322C288.713 60.686 288.533 59.918 288.533 59.018C288.533 57.734 288.905 56.702 289.649 55.922C290.393 55.13 291.449 54.734 292.817 54.734C294.497 54.734 295.673 55.28 296.345 56.372C297.029 57.464 297.371 59.09 297.371 61.25C297.371 62.762 297.233 64.01 296.957 64.994C296.693 65.978 296.237 66.728 295.589 67.244C294.953 67.76 294.077 68.018 292.961 68.018C291.737 68.018 290.783 67.688 290.099 67.028C289.415 66.368 289.025 65.528 288.929 64.508H290.441ZM292.979 61.88C293.783 61.88 294.443 61.634 294.959 61.142C295.475 60.638 295.733 59.96 295.733 59.108C295.733 58.208 295.481 57.482 294.977 56.93C294.473 56.378 293.765 56.102 292.853 56.102C292.013 56.102 291.341 56.366 290.837 56.894C290.345 57.422 290.099 58.118 290.099 58.982C290.099 59.858 290.345 60.56 290.837 61.088C291.329 61.616 292.043 61.88 292.979 61.88ZM299.241 56.48V54.986H302.625V68H300.969V56.48H299.241ZM305.402 58.262C305.486 57.158 305.912 56.294 306.68 55.67C307.448 55.046 308.444 54.734 309.668 54.734C310.484 54.734 311.186 54.884 311.774 55.184C312.374 55.472 312.824 55.868 313.124 56.372C313.436 56.876 313.592 57.446 313.592 58.082C313.592 58.826 313.376 59.468 312.944 60.008C312.524 60.548 311.972 60.896 311.288 61.052V61.142C312.068 61.334 312.686 61.712 313.142 62.276C313.598 62.84 313.826 63.578 313.826 64.49C313.826 65.174 313.67 65.792 313.358 66.344C313.046 66.884 312.578 67.31 311.954 67.622C311.33 67.934 310.58 68.09 309.704 68.09C308.432 68.09 307.388 67.76 306.572 67.1C305.756 66.428 305.3 65.48 305.204 64.256H306.788C306.872 64.976 307.166 65.564 307.67 66.02C308.174 66.476 308.846 66.704 309.686 66.704C310.526 66.704 311.162 66.488 311.594 66.056C312.038 65.612 312.26 65.042 312.26 64.346C312.26 63.446 311.96 62.798 311.36 62.402C310.76 62.006 309.854 61.808 308.642 61.808H308.228V60.44H308.66C309.764 60.428 310.598 60.248 311.162 59.9C311.726 59.54 312.008 58.988 312.008 58.244C312.008 57.608 311.798 57.098 311.378 56.714C310.97 56.33 310.382 56.138 309.614 56.138C308.87 56.138 308.27 56.33 307.814 56.714C307.358 57.098 307.088 57.614 307.004 58.262H305.402ZM324.048 56.264L319.044 68H317.388L322.464 56.426H315.516V55.022H324.048V56.264Z" fill="white"/>
</svg>
