<svg width="303" height="73" viewBox="0 0 303 73" fill="none" xmlns="http://www.w3.org/2000/svg">
<path d="M18 36C22.1644 36 26.1999 34.5561 29.4191 31.9142C32.6382 29.2723 34.8417 25.596 35.6541 21.5116C36.4665 17.4273 35.8376 13.1875 33.8746 9.51486C31.9115 5.8422 28.7357 2.96382 24.8883 1.37017C21.0409 -0.223471 16.76 -0.433782 12.7749 0.775077C8.78982 1.98394 5.34718 4.53717 3.03357 7.99974C0.719962 11.4623 -0.321478 15.62 0.0867025 19.7643C0.494883 23.9086 2.32743 27.7832 5.27209 30.7279M26 14L18.8041 22.6351C17.4929 24.2085 16.8374 24.9952 15.9562 25.0351C15.0751 25.0751 14.351 24.351 12.9028 22.9028L10 20" stroke="#D29A5A" stroke-width="4" stroke-linecap="round"/>
<path d="M73.264 29.168L69.928 25.832C69.112 26.056 68.28 26.168 67.432 26.168C65.88 26.168 64.464 25.808 63.184 25.088C61.904 24.352 60.888 23.336 60.136 22.04C59.4 20.728 59.032 19.256 59.032 17.624C59.032 15.992 59.4 14.528 60.136 13.232C60.888 11.92 61.904 10.904 63.184 10.184C64.464 9.448 65.88 9.08 67.432 9.08C69 9.08 70.424 9.448 71.704 10.184C72.984 10.904 73.992 11.912 74.728 13.208C75.464 14.504 75.832 15.976 75.832 17.624C75.832 19.224 75.48 20.664 74.776 21.944C74.072 23.224 73.104 24.232 71.872 24.968L76.096 29.168H73.264ZM61.264 17.624C61.264 18.952 61.528 20.12 62.056 21.128C62.6 22.136 63.336 22.912 64.264 23.456C65.208 24 66.264 24.272 67.432 24.272C68.6 24.272 69.648 24 70.576 23.456C71.52 22.912 72.256 22.136 72.784 21.128C73.328 20.12 73.6 18.952 73.6 17.624C73.6 16.28 73.328 15.112 72.784 14.12C72.256 13.112 71.528 12.336 70.6 11.792C69.672 11.248 68.616 10.976 67.432 10.976C66.248 10.976 65.192 11.248 64.264 11.792C63.336 12.336 62.6 13.112 62.056 14.12C61.528 15.112 61.264 16.28 61.264 17.624ZM80.8981 9.272V19.856C80.8981 21.344 81.2581 22.448 81.9781 23.168C82.7141 23.888 83.7301 24.248 85.0261 24.248C86.3061 24.248 87.3061 23.888 88.0261 23.168C88.7621 22.448 89.1301 21.344 89.1301 19.856V9.272H91.3141V19.832C91.3141 21.224 91.0341 22.4 90.4741 23.36C89.9141 24.304 89.1541 25.008 88.1941 25.472C87.2501 25.936 86.1861 26.168 85.0021 26.168C83.8181 26.168 82.7461 25.936 81.7861 25.472C80.8421 25.008 80.0901 24.304 79.5301 23.36C78.9861 22.4 78.7141 21.224 78.7141 19.832V9.272H80.8981ZM104.845 22.28H97.5494L96.2054 26H93.9014L99.9494 9.368H102.469L108.493 26H106.189L104.845 22.28ZM104.221 20.504L101.197 12.056L98.1734 20.504H104.221ZM113.313 24.224H119.169V26H111.129V9.272H113.313V24.224ZM123.673 9.272V26H121.489V9.272H123.673ZM137.691 9.272V11.048H133.131V26H130.947V11.048H126.363V9.272H137.691ZM152.091 9.272L146.643 19.688V26H144.459V19.688L138.987 9.272H141.411L145.539 17.744L149.667 9.272H152.091ZM173.465 14.12C173.001 13.144 172.329 12.392 171.449 11.864C170.569 11.32 169.545 11.048 168.377 11.048C167.209 11.048 166.153 11.32 165.209 11.864C164.281 12.392 163.545 13.16 163.001 14.168C162.473 15.16 162.209 16.312 162.209 17.624C162.209 18.936 162.473 20.088 163.001 21.08C163.545 22.072 164.281 22.84 165.209 23.384C166.153 23.912 167.209 24.176 168.377 24.176C170.009 24.176 171.353 23.688 172.409 22.712C173.465 21.736 174.081 20.416 174.257 18.752H167.585V16.976H176.585V18.656C176.457 20.032 176.025 21.296 175.289 22.448C174.553 23.584 173.585 24.488 172.385 25.16C171.185 25.816 169.849 26.144 168.377 26.144C166.825 26.144 165.409 25.784 164.129 25.064C162.849 24.328 161.833 23.312 161.081 22.016C160.345 20.72 159.977 19.256 159.977 17.624C159.977 15.992 160.345 14.528 161.081 13.232C161.833 11.92 162.849 10.904 164.129 10.184C165.409 9.448 166.825 9.08 168.377 9.08C170.153 9.08 171.721 9.52 173.081 10.4C174.457 11.28 175.457 12.52 176.081 14.12H173.465ZM181.609 9.272V19.856C181.609 21.344 181.969 22.448 182.689 23.168C183.425 23.888 184.441 24.248 185.737 24.248C187.017 24.248 188.017 23.888 188.737 23.168C189.473 22.448 189.841 21.344 189.841 19.856V9.272H192.025V19.832C192.025 21.224 191.745 22.4 191.185 23.36C190.625 24.304 189.865 25.008 188.905 25.472C187.961 25.936 186.897 26.168 185.713 26.168C184.529 26.168 183.457 25.936 182.497 25.472C181.553 25.008 180.801 24.304 180.241 23.36C179.697 22.4 179.425 21.224 179.425 19.832V9.272H181.609ZM205.556 22.28H198.26L196.916 26H194.612L200.66 9.368H203.18L209.204 26H206.9L205.556 22.28ZM204.932 20.504L201.908 12.056L198.884 20.504H204.932ZM220.648 26L216.664 19.16H214.024V26H211.84V9.272H217.24C218.504 9.272 219.568 9.488 220.432 9.92C221.312 10.352 221.968 10.936 222.4 11.672C222.832 12.408 223.048 13.248 223.048 14.192C223.048 15.344 222.712 16.36 222.04 17.24C221.384 18.12 220.392 18.704 219.064 18.992L223.264 26H220.648ZM214.024 17.408H217.24C218.424 17.408 219.312 17.12 219.904 16.544C220.496 15.952 220.792 15.168 220.792 14.192C220.792 13.2 220.496 12.432 219.904 11.888C219.328 11.344 218.44 11.072 217.24 11.072H214.024V17.408ZM236.33 22.28H229.034L227.69 26H225.386L231.434 9.368H233.954L239.978 26H237.674L236.33 22.28ZM235.706 20.504L232.682 12.056L229.658 20.504H235.706ZM255.766 26H253.582L244.798 12.68V26H242.614V9.248H244.798L253.582 22.544V9.248H255.766V26ZM269.785 9.272V11.048H265.225V26H263.041V11.048H258.457V9.272H269.785ZM274.657 11.048V16.64H280.753V18.44H274.657V24.2H281.473V26H272.473V9.248H281.473V11.048H274.657ZM286.962 11.048V16.64H293.058V18.44H286.962V24.2H293.778V26H284.778V9.248H293.778V11.048H286.962ZM299.914 9.272L299.65 21.272H297.826L297.562 9.272H299.914ZM298.834 26.144C298.418 26.144 298.066 26 297.778 25.712C297.49 25.424 297.346 25.072 297.346 24.656C297.346 24.24 297.49 23.888 297.778 23.6C298.066 23.312 298.418 23.168 298.834 23.168C299.234 23.168 299.57 23.312 299.842 23.6C300.13 23.888 300.274 24.24 300.274 24.656C300.274 25.072 300.13 25.424 299.842 25.712C299.57 26 299.234 26.144 298.834 26.144Z" fill="#D29A5A"/>
<path d="M63.364 66.126C62.536 66.126 61.792 65.982 61.132 65.694C60.484 65.394 59.974 64.986 59.602 64.47C59.23 63.942 59.038 63.336 59.026 62.652H60.772C60.832 63.24 61.072 63.738 61.492 64.146C61.924 64.542 62.548 64.74 63.364 64.74C64.144 64.74 64.756 64.548 65.2 64.164C65.656 63.768 65.884 63.264 65.884 62.652C65.884 62.172 65.752 61.782 65.488 61.482C65.224 61.182 64.894 60.954 64.498 60.798C64.102 60.642 63.568 60.474 62.896 60.294C62.068 60.078 61.402 59.862 60.898 59.646C60.406 59.43 59.98 59.094 59.62 58.638C59.272 58.17 59.098 57.546 59.098 56.766C59.098 56.082 59.272 55.476 59.62 54.948C59.968 54.42 60.454 54.012 61.078 53.724C61.714 53.436 62.44 53.292 63.256 53.292C64.432 53.292 65.392 53.586 66.136 54.174C66.892 54.762 67.318 55.542 67.414 56.514H65.614C65.554 56.034 65.302 55.614 64.858 55.254C64.414 54.882 63.826 54.696 63.094 54.696C62.41 54.696 61.852 54.876 61.42 55.236C60.988 55.584 60.772 56.076 60.772 56.712C60.772 57.168 60.898 57.54 61.15 57.828C61.414 58.116 61.732 58.338 62.104 58.494C62.488 58.638 63.022 58.806 63.706 58.998C64.534 59.226 65.2 59.454 65.704 59.682C66.208 59.898 66.64 60.24 67 60.708C67.36 61.164 67.54 61.788 67.54 62.58C67.54 63.192 67.378 63.768 67.054 64.308C66.73 64.848 66.25 65.286 65.614 65.622C64.978 65.958 64.228 66.126 63.364 66.126ZM78.9505 60.69C78.9505 61.002 78.9325 61.332 78.8965 61.68H71.0125C71.0725 62.652 71.4025 63.414 72.0025 63.966C72.6145 64.506 73.3525 64.776 74.2165 64.776C74.9245 64.776 75.5125 64.614 75.9805 64.29C76.4605 63.954 76.7965 63.51 76.9885 62.958H78.7525C78.4885 63.906 77.9605 64.68 77.1685 65.28C76.3765 65.868 75.3925 66.162 74.2165 66.162C73.2805 66.162 72.4405 65.952 71.6965 65.532C70.9645 65.112 70.3885 64.518 69.9685 63.75C69.5485 62.97 69.3385 62.07 69.3385 61.05C69.3385 60.03 69.5425 59.136 69.9505 58.368C70.3585 57.6 70.9285 57.012 71.6605 56.604C72.4045 56.184 73.2565 55.974 74.2165 55.974C75.1525 55.974 75.9805 56.178 76.7005 56.586C77.4205 56.994 77.9725 57.558 78.3565 58.278C78.7525 58.986 78.9505 59.79 78.9505 60.69ZM77.2585 60.348C77.2585 59.724 77.1205 59.19 76.8445 58.746C76.5685 58.29 76.1905 57.948 75.7105 57.72C75.2425 57.48 74.7205 57.36 74.1445 57.36C73.3165 57.36 72.6085 57.624 72.0205 58.152C71.4445 58.68 71.1145 59.412 71.0305 60.348H77.2585ZM85.9186 55.956C87.1186 55.956 88.0906 56.322 88.8346 57.054C89.5786 57.774 89.9506 58.818 89.9506 60.186V66H88.3306V60.42C88.3306 59.436 88.0846 58.686 87.5926 58.17C87.1006 57.642 86.4286 57.378 85.5766 57.378C84.7126 57.378 84.0226 57.648 83.5066 58.188C83.0026 58.728 82.7506 59.514 82.7506 60.546V66H81.1126V56.136H82.7506V57.54C83.0746 57.036 83.5126 56.646 84.0646 56.37C84.6286 56.094 85.2466 55.956 85.9186 55.956ZM92.0142 61.032C92.0142 60.024 92.2182 59.142 92.6262 58.386C93.0342 57.618 93.5922 57.024 94.3002 56.604C95.0202 56.184 95.8242 55.974 96.7122 55.974C97.4802 55.974 98.1942 56.154 98.8542 56.514C99.5142 56.862 100.018 57.324 100.366 57.9V52.68H102.022V66H100.366V64.146C100.042 64.734 99.5622 65.22 98.9262 65.604C98.2902 65.976 97.5462 66.162 96.6942 66.162C95.8182 66.162 95.0202 65.946 94.3002 65.514C93.5922 65.082 93.0342 64.476 92.6262 63.696C92.2182 62.916 92.0142 62.028 92.0142 61.032ZM100.366 61.05C100.366 60.306 100.216 59.658 99.9162 59.106C99.6162 58.554 99.2082 58.134 98.6922 57.846C98.1882 57.546 97.6302 57.396 97.0182 57.396C96.4062 57.396 95.8482 57.54 95.3442 57.828C94.8402 58.116 94.4382 58.536 94.1382 59.088C93.8382 59.64 93.6882 60.288 93.6882 61.032C93.6882 61.788 93.8382 62.448 94.1382 63.012C94.4382 63.564 94.8402 63.99 95.3442 64.29C95.8482 64.578 96.4062 64.722 97.0182 64.722C97.6302 64.722 98.1882 64.578 98.6922 64.29C99.2082 63.99 99.6162 63.564 99.9162 63.012C100.216 62.448 100.366 61.794 100.366 61.05ZM125.357 53.454L121.721 66H119.885L116.969 55.902L113.945 66L112.127 66.018L108.617 53.454H110.363L113.099 64.092L116.123 53.454H117.959L120.839 64.056L123.593 53.454H125.357ZM127.996 54.534C127.684 54.534 127.42 54.426 127.204 54.21C126.988 53.994 126.88 53.73 126.88 53.418C126.88 53.106 126.988 52.842 127.204 52.626C127.42 52.41 127.684 52.302 127.996 52.302C128.296 52.302 128.548 52.41 128.752 52.626C128.968 52.842 129.076 53.106 129.076 53.418C129.076 53.73 128.968 53.994 128.752 54.21C128.548 54.426 128.296 54.534 127.996 54.534ZM128.788 56.136V66H127.15V56.136H128.788ZM133.577 57.486V63.3C133.577 63.78 133.679 64.122 133.883 64.326C134.087 64.518 134.441 64.614 134.945 64.614H136.151V66H134.675C133.763 66 133.079 65.79 132.623 65.37C132.167 64.95 131.939 64.26 131.939 63.3V57.486H130.661V56.136H131.939V53.652H133.577V56.136H136.151V57.486H133.577ZM143.032 55.956C143.776 55.956 144.448 56.118 145.048 56.442C145.648 56.754 146.116 57.228 146.452 57.864C146.8 58.5 146.974 59.274 146.974 60.186V66H145.354V60.42C145.354 59.436 145.108 58.686 144.616 58.17C144.124 57.642 143.452 57.378 142.6 57.378C141.736 57.378 141.046 57.648 140.53 58.188C140.026 58.728 139.774 59.514 139.774 60.546V66H138.136V52.68H139.774V57.54C140.098 57.036 140.542 56.646 141.106 56.37C141.682 56.094 142.324 55.956 143.032 55.956ZM150.496 54.534C150.184 54.534 149.92 54.426 149.704 54.21C149.488 53.994 149.38 53.73 149.38 53.418C149.38 53.106 149.488 52.842 149.704 52.626C149.92 52.41 150.184 52.302 150.496 52.302C150.796 52.302 151.048 52.41 151.252 52.626C151.468 52.842 151.576 53.106 151.576 53.418C151.576 53.73 151.468 53.994 151.252 54.21C151.048 54.426 150.796 54.534 150.496 54.534ZM151.288 56.136V66H149.65V56.136H151.288ZM158.885 55.956C160.085 55.956 161.057 56.322 161.801 57.054C162.545 57.774 162.917 58.818 162.917 60.186V66H161.297V60.42C161.297 59.436 161.051 58.686 160.559 58.17C160.067 57.642 159.395 57.378 158.543 57.378C157.679 57.378 156.989 57.648 156.473 58.188C155.969 58.728 155.717 59.514 155.717 60.546V66H154.079V56.136H155.717V57.54C156.041 57.036 156.479 56.646 157.031 56.37C157.595 56.094 158.213 55.956 158.885 55.956ZM170.086 56.262C170.17 55.158 170.596 54.294 171.364 53.67C172.132 53.046 173.128 52.734 174.352 52.734C175.168 52.734 175.87 52.884 176.458 53.184C177.058 53.472 177.508 53.868 177.808 54.372C178.12 54.876 178.276 55.446 178.276 56.082C178.276 56.826 178.06 57.468 177.628 58.008C177.208 58.548 176.656 58.896 175.972 59.052V59.142C176.752 59.334 177.37 59.712 177.826 60.276C178.282 60.84 178.51 61.578 178.51 62.49C178.51 63.174 178.354 63.792 178.042 64.344C177.73 64.884 177.262 65.31 176.638 65.622C176.014 65.934 175.264 66.09 174.388 66.09C173.116 66.09 172.072 65.76 171.256 65.1C170.44 64.428 169.984 63.48 169.888 62.256H171.472C171.556 62.976 171.85 63.564 172.354 64.02C172.858 64.476 173.53 64.704 174.37 64.704C175.21 64.704 175.846 64.488 176.278 64.056C176.722 63.612 176.944 63.042 176.944 62.346C176.944 61.446 176.644 60.798 176.044 60.402C175.444 60.006 174.538 59.808 173.326 59.808H172.912V58.44H173.344C174.448 58.428 175.282 58.248 175.846 57.9C176.41 57.54 176.692 56.988 176.692 56.244C176.692 55.608 176.482 55.098 176.062 54.714C175.654 54.33 175.066 54.138 174.298 54.138C173.554 54.138 172.954 54.33 172.498 54.714C172.042 55.098 171.772 55.614 171.688 56.262H170.086ZM180.721 59.358C180.721 57.294 181.057 55.686 181.729 54.534C182.401 53.37 183.577 52.788 185.257 52.788C186.925 52.788 188.095 53.37 188.767 54.534C189.439 55.686 189.775 57.294 189.775 59.358C189.775 61.458 189.439 63.09 188.767 64.254C188.095 65.418 186.925 66 185.257 66C183.577 66 182.401 65.418 181.729 64.254C181.057 63.09 180.721 61.458 180.721 59.358ZM188.155 59.358C188.155 58.314 188.083 57.432 187.939 56.712C187.807 55.98 187.525 55.392 187.093 54.948C186.673 54.504 186.061 54.282 185.257 54.282C184.441 54.282 183.817 54.504 183.385 54.948C182.965 55.392 182.683 55.98 182.539 56.712C182.407 57.432 182.341 58.314 182.341 59.358C182.341 60.438 182.407 61.344 182.539 62.076C182.683 62.808 182.965 63.396 183.385 63.84C183.817 64.284 184.441 64.506 185.257 64.506C186.061 64.506 186.673 64.284 187.093 63.84C187.525 63.396 187.807 62.808 187.939 62.076C188.083 61.344 188.155 60.438 188.155 59.358ZM200.999 53.454C202.367 53.454 203.549 53.712 204.545 54.228C205.553 54.732 206.321 55.458 206.849 56.406C207.389 57.354 207.659 58.47 207.659 59.754C207.659 61.038 207.389 62.154 206.849 63.102C206.321 64.038 205.553 64.758 204.545 65.262C203.549 65.754 202.367 66 200.999 66H197.093V53.454H200.999ZM200.999 64.65C202.619 64.65 203.855 64.224 204.707 63.372C205.559 62.508 205.985 61.302 205.985 59.754C205.985 58.194 205.553 56.976 204.689 56.1C203.837 55.224 202.607 54.786 200.999 54.786H198.731V64.65H200.999ZM209.208 61.032C209.208 60.024 209.412 59.142 209.82 58.386C210.228 57.618 210.786 57.024 211.494 56.604C212.214 56.184 213.012 55.974 213.888 55.974C214.752 55.974 215.502 56.16 216.138 56.532C216.774 56.904 217.248 57.372 217.56 57.936V56.136H219.216V66H217.56V64.164C217.236 64.74 216.75 65.22 216.102 65.604C215.466 65.976 214.722 66.162 213.87 66.162C212.994 66.162 212.202 65.946 211.494 65.514C210.786 65.082 210.228 64.476 209.82 63.696C209.412 62.916 209.208 62.028 209.208 61.032ZM217.56 61.05C217.56 60.306 217.41 59.658 217.11 59.106C216.81 58.554 216.402 58.134 215.886 57.846C215.382 57.546 214.824 57.396 214.212 57.396C213.6 57.396 213.042 57.54 212.538 57.828C212.034 58.116 211.632 58.536 211.332 59.088C211.032 59.64 210.882 60.288 210.882 61.032C210.882 61.788 211.032 62.448 211.332 63.012C211.632 63.564 212.034 63.99 212.538 64.29C213.042 64.578 213.6 64.722 214.212 64.722C214.824 64.722 215.382 64.578 215.886 64.29C216.402 63.99 216.81 63.564 217.11 63.012C217.41 62.448 217.56 61.794 217.56 61.05ZM230.48 56.136L224.54 70.644H222.848L224.792 65.892L220.814 56.136H222.632L225.728 64.128L228.788 56.136H230.48ZM235.618 66.162C234.862 66.162 234.184 66.036 233.584 65.784C232.984 65.52 232.51 65.16 232.162 64.704C231.814 64.236 231.622 63.702 231.586 63.102H233.278C233.326 63.594 233.554 63.996 233.962 64.308C234.382 64.62 234.928 64.776 235.6 64.776C236.224 64.776 236.716 64.638 237.076 64.362C237.436 64.086 237.616 63.738 237.616 63.318C237.616 62.886 237.424 62.568 237.04 62.364C236.656 62.148 236.062 61.938 235.258 61.734C234.526 61.542 233.926 61.35 233.458 61.158C233.002 60.954 232.606 60.66 232.27 60.276C231.946 59.88 231.784 59.364 231.784 58.728C231.784 58.224 231.934 57.762 232.234 57.342C232.534 56.922 232.96 56.592 233.512 56.352C234.064 56.1 234.694 55.974 235.402 55.974C236.494 55.974 237.376 56.25 238.048 56.802C238.72 57.354 239.08 58.11 239.128 59.07H237.49C237.454 58.554 237.244 58.14 236.86 57.828C236.488 57.516 235.984 57.36 235.348 57.36C234.76 57.36 234.292 57.486 233.944 57.738C233.596 57.99 233.422 58.32 233.422 58.728C233.422 59.052 233.524 59.322 233.728 59.538C233.944 59.742 234.208 59.91 234.52 60.042C234.844 60.162 235.288 60.3 235.852 60.456C236.56 60.648 237.136 60.84 237.58 61.032C238.024 61.212 238.402 61.488 238.714 61.86C239.038 62.232 239.206 62.718 239.218 63.318C239.218 63.858 239.068 64.344 238.768 64.776C238.468 65.208 238.042 65.55 237.49 65.802C236.95 66.042 236.326 66.162 235.618 66.162Z" fill="white"/>
</svg>
